<svg width="8" height="8" viewBox="0 0 8 8" fill="none" xmlns="http://www.w3.org/2000/svg">
<path d="M1.00085 1.6706C1.00099 1.29944 1.2703 1.133 1.60235 1.29883L6.39767 3.6991C6.72972 3.86493 6.99903 4.29749 6.99917 4.66865V6.32929C6.99903 6.70044 6.72972 6.86689 6.39767 6.70105L1.60235 4.30079C1.2703 4.13495 1.00099 3.7024 1.00085 3.33124V1.6706Z" fill="url(#paint0_linear)"/>
<path fill-rule="evenodd" clip-rule="evenodd" d="M6.39767 1.29883C6.72972 1.133 6.99903 1.29944 6.99917 1.6706V3.33124C6.99908 3.5559 6.90038 3.80306 6.74884 3.99994C6.65002 3.87156 6.52873 3.76455 6.39767 3.6991L4.00001 2.49896L6.39767 1.29883ZM4.00001 5.50092L1.60235 6.70105C1.2703 6.86689 1.00099 6.70044 1.00085 6.32929V4.66865C1.00099 4.29749 1.2703 3.86493 1.60235 3.6991L4.00001 2.49896V5.50092Z" fill="#1D1D1F"/>
<g clip-path="url(#clip0)">
<path d="M5.45498 5.05519L5.23028 4.70203L5.2327 4.70049C5.36909 4.59587 5.46788 4.43918 5.52225 4.24121L5.77048 4.3717L5.76289 4.18043L5.16986 3.86869L5.16228 3.67742L4.99284 3.58835L5.00042 3.77962L4.40739 3.46788L4.41494 3.6582L5.36125 4.15564C5.3118 4.31038 5.22894 4.43819 5.11301 4.52708C5.03032 4.38716 4.9608 4.2448 4.90461 4.10382L4.73517 4.01476C4.8032 4.20315 4.89376 4.39496 5.00492 4.58357L4.59274 4.83698L4.71842 5.03602L5.12306 4.78051L5.39833 5.21644L5.45498 5.05519ZM5.91272 4.82104L5.74328 4.73197L5.40755 5.6792L5.57699 5.76827L5.6605 5.53124L6.06291 5.74277L6.17002 6.08001L6.33945 6.16907L5.91272 4.82104ZM5.7173 5.37381L5.83813 5.03186L5.99179 5.5181L5.7173 5.37381V5.37381Z" fill="#1D1D1F"/>
</g>
<defs>
<linearGradient id="paint0_linear" x1="0.999999" y1="0.999941" x2="8.04603" y2="5.2765" gradientUnits="userSpaceOnUse">
<stop stop-color="#FF0000"/>
<stop offset="0.109375" stop-color="#FF1000"/>
<stop offset="0.317708" stop-color="#FFAA00"/>
<stop offset="0.614583" stop-color="#FFA100"/>
<stop offset="0.817708" stop-color="#FF0000"/>
<stop offset="1" stop-color="#FF0000"/>
</linearGradient>
<clipPath id="clip0">
<rect width="2.29706" height="2.29706" fill="white" transform="matrix(0.885153 0.465299 0.0396156 0.999215 4.30753 3.04077)"/>
</clipPath>
</defs>
</svg>
